<?xml version="1.0" encoding="UTF-8"?>
<svg width="14px" height="14px" viewBox="0 0 14 14" version="1.1" xmlns="http://www.w3.org/2000/svg" xmlns:xlink="http://www.w3.org/1999/xlink">
    <!-- Generator: Sketch 61.2 (89653) - https://sketch.com -->
    <title>icon_help_xs_hover</title>
    <desc>Created with Sketch.</desc>
    <g id="icon_help_xs_hover" stroke="none" stroke-width="1" fill="none" fill-rule="evenodd">
        <g id="Icon-24px-2-Copy-3" fill="#D1D7DA">
            <g id="Icon-24px">
                <path d="M7,0.333333333 C3.32,0.333333333 0.333333333,3.32 0.333333333,7 C0.333333333,10.68 3.32,13.6666667 7,13.6666667 C10.68,13.6666667 13.6666667,10.68 13.6666667,7 C13.6666667,3.32 10.68,0.333333333 7,0.333333333 L7,0.333333333 Z M7.66666667,11.6666667 L6.33333333,11.6666667 L6.33333333,10.3333333 L7.66666667,10.3333333 L7.66666667,11.6666667 L7.66666667,11.6666667 Z M9.04666667,6.5 L8.44666667,7.11333333 C7.96666667,7.6 7.66666667,8 7.66666667,9 L6.33333333,9 L6.33333333,8.66666667 C6.33333333,7.93333333 6.63333333,7.26666667 7.11333333,6.78 L7.94,5.94 C8.18666667,5.7 8.33333333,5.36666667 8.33333333,5 C8.33333333,4.26666667 7.73333333,3.66666667 7,3.66666667 C6.26666667,3.66666667 5.66666667,4.26666667 5.66666667,5 L4.33333333,5 C4.33333333,3.52666667 5.52666667,2.33333333 7,2.33333333 C8.47333333,2.33333333 9.66666667,3.52666667 9.66666667,5 C9.66666667,5.58666667 9.42666667,6.12 9.04666667,6.5 L9.04666667,6.5 Z" id="Shape"></path>
            </g>
        </g>
    </g>
</svg>