<svg xmlns="http://www.w3.org/2000/svg" width="48" height="48" viewBox="0 0 48 48"><g fill="none" fill-rule="evenodd"><circle cx="24" cy="24" r="18" fill="#5697B7"/><g transform="translate(12 12)"><polygon points="0 0 24 0 24 24 0 24"/><path fill="#FFF" fill-rule="nonzero" d="M20,6 L12,6 L10.59,4.59 C10.21,4.21 9.7,4 9.17,4 L4,4 C2.9,4 2.01,4.9 2.01,6 L2,18 C2,19.1 2.9,20 4,20 L20,20 C21.1,20 22,19.1 22,18 L22,8 C22,6.9 21.1,6 20,6 Z M19,18 L5,18 C4.45,18 4,17.55 4,17 L4,9 C4,8.45 4.45,8 5,8 L19,8 C19.55,8 20,8.45 20,9 L20,17 C20,17.55 19.55,18 19,18 Z"/></g></g></svg>