<?xml version="1.0" encoding="UTF-8"?>
<svg width="18px" height="18px" viewBox="0 0 24 24" version="1.1" xmlns="http://www.w3.org/2000/svg" xmlns:xlink="http://www.w3.org/1999/xlink">
    <!-- Generator: Sketch 61.2 (89653) - https://sketch.com -->
    <title>icon_add</title>
    <desc>Created with Sketch.</desc>
    <g id="icon_add" stroke="none" stroke-width="1" fill="none" fill-rule="evenodd">
        <path d="M16.6880724,14.8415168 C17.1987329,15.3522107 17.1987329,16.1776801 16.6880724,16.6883739 C16.4333952,16.9430678 16.0990497,17.0710678 15.7647041,17.0710678 C15.4303586,17.0710678 15.0960131,16.9430678 14.8413359,16.6883739 L12.0712311,13.9180882 L9.29982022,16.6883739 C9.04514297,16.9430678 8.71079746,17.0710678 8.37645195,17.0710678 C8.04210644,17.0710678 7.70906696,16.9430678 7.45308368,16.6883739 C6.94372919,16.1776801 6.94372919,15.3522107 7.45308368,14.8415168 L10.2231885,12.0712311 L7.45308368,9.30094536 C6.94372919,8.79025149 6.94372919,7.96347598 7.45308368,7.45408822 C7.96374421,6.94339434 8.79046573,6.94339434 9.29982022,7.45408822 L12.0712311,10.2243739 L14.8413359,7.45408822 C15.3519964,6.94339434 16.1774119,6.94339434 16.6880724,7.45408822 C17.1987329,7.96347598 17.1987329,8.79025149 16.6880724,9.30094536 L13.9179676,12.0712311 L16.6880724,14.8415168 Z" id="Path-Copy-4" fill="#06749f" transform="translate(12.071068, 12.071068) rotate(-45.000000) translate(-12.071068, -12.071068) "></path>
    </g>
</svg>