<?xml version="1.0" encoding="UTF-8"?>
<svg width="12px" height="12px" viewBox="0 0 12 12" version="1.1" xmlns="http://www.w3.org/2000/svg" xmlns:xlink="http://www.w3.org/1999/xlink">
    <!-- Generator: Sketch 61.2 (89653) - https://sketch.com -->
    <title>icon_open_new</title>
    <desc>Created with Sketch.</desc>
    <defs>
        <path d="M10.6699405,10.6666667 C10.6679127,10.6666667 10.6666667,10.6679147 10.6666667,10.6680579 L10.6699405,10.6666667 Z M1.33660714,10.6706265 C1.33660714,10.6677052 1.33556872,10.6666667 1.33333333,10.6666667 L1.33660714,10.6666667 L1.33660714,10.6706265 Z M1.3350722,1.33333333 L1.3350722,1.33729315 C1.33432778,1.33729315 1.3350722,1.33655038 1.3350722,1.33333333 Z M10.6666667,10.6666667 L10.6666667,6.66666667 L12,6.66666667 L12,10.6680579 C12,11.4036692 11.4049181,12 10.6699405,12 L1.33005953,12 C0.595487935,12 0,11.4036575 0,10.6706265 L0,1.32937352 C0,0.595180798 0.597238541,0 1.33159447,0 L5.33333333,0 L5.33333333,1.33333333 L1.33333333,1.33333333 L1.33333333,10.6666667 L10.6666667,10.6666667 Z M1.3350722,1.33333333 L1.3350722,1.33729315 C1.33432778,1.33729315 1.3350722,1.33655038 1.3350722,1.33333333 Z M1.33660714,10.6706265 C1.33660714,10.6677052 1.33556872,10.6666667 1.33333333,10.6666667 L1.33660714,10.6666667 L1.33660714,10.6706265 Z M5.33333333,0 L5.33333333,1.33333333 L1.33333333,1.33333333 L1.33333333,10.6666667 L10.6666667,10.6666667 L10.6666667,6.66666667 L12,6.66666667 L12,10.6680579 C12,11.4036692 11.4049181,12 10.6699405,12 L10.6699405,12 L1.33005953,12 C0.595487935,12 0,11.4036575 0,10.6706265 L0,10.6706265 L0,1.32937352 C0,0.595180798 0.597238541,0 1.33159447,0 L1.33159447,0 L5.33333333,0 Z M11.3333333,-1.73472348e-18 C11.3858827,0 11.4384321,0.0061744494 11.4897999,0.0185233482 C11.5041449,0.0219292239 11.517664,0.0256574208 11.5310038,0.0297931983 C11.5390512,0.0323223939 11.5475064,0.0351191625 11.5559139,0.0380896783 C11.5812538,0.0470551459 11.6054505,0.0573197228 11.6288681,0.0689198973 C11.6355953,0.0722084098 11.6423689,0.075703086 11.6490934,0.0793215625 C11.6690571,0.0901357375 11.688291,0.101805366 11.7068569,0.114386587 C11.7412764,0.137636587 11.7741253,0.164649619 11.8047379,0.195262146 L11.7484732,0.144998822 C11.763015,0.156586386 11.7770613,0.168769231 11.7905754,0.181510474 L11.8047379,0.195262146 C11.8095003,0.200024637 11.8141757,0.204841257 11.818764,0.209710026 C11.8312308,0.222938672 11.8434136,0.23698504 11.8550012,0.251526789 C11.8660314,0.265311686 11.876205,0.279154456 11.885777,0.293283113 C11.8981946,0.311709007 11.9098643,0.330942942 11.920558,0.35078063 C11.9242969,0.35763113 11.9277916,0.36440465 11.9311625,0.371223842 C11.9426803,0.394549485 11.9529449,0.418746185 11.9617743,0.443622449 C11.9648808,0.452493621 11.9676776,0.460948823 11.9703006,0.469446126 C11.9743426,0.482336039 11.9780708,0.495855122 11.9813768,0.50953892 C11.9858068,0.528212188 11.9893777,0.546369555 11.9921895,0.564621261 L11.9927716,0.568151553 L12,0.666666667 L12,3.33333333 C12,3.70152317 11.7015232,4 11.3333333,4 C10.9651435,4 10.6666667,3.70152317 10.6666667,3.33333333 L10.6666667,3.33333333 L10.666,2.276 L6.47140452,6.47140452 C6.23708995,6.7057191 5.8717494,6.72915055 5.61122963,6.54169889 L5.52859548,6.47140452 C5.26824595,6.21105499 5.26824595,5.78894501 5.52859548,5.52859548 L5.52859548,5.52859548 L9.723,1.333 L8.66666667,1.33333333 C8.33194864,1.33333333 8.05484466,1.08665826 8.00722838,0.765181781 L8,0.666666667 C8,0.298476833 8.29847683,0 8.66666667,0 L8.66666667,0 Z" id="path-1"></path>
    </defs>
    <g id="icon_open_new" stroke="none" stroke-width="1" fill="none" fill-rule="evenodd">
        <g id="Group-3-Copy-5">
            <mask id="mask-2" fill="white">
                <use xlink:href="#path-1"></use>
            </mask>
            <use id="Rectangle-25" fill="#42526E" fill-rule="nonzero" xlink:href="#path-1"></use>
        </g>
    </g>
</svg>