<svg width="24" height="24" viewBox="0 0 24 24" xmlns="http://www.w3.org/2000/svg" xmlns:xlink="http://www.w3.org/1999/xlink"><defs><path d="M12,4 C7.56666667,4 4,7.56666667 4,12 C4,16.4333333 7.56666667,20 12,20 C16.4333333,20 20,16.4333333 20,12 C20,7.56666667 16.4333333,4 12,4 Z M12,8.03333333 C12.5666667,8.03333333 13,8.46666667 13,9.03333333 C13,9.6 12.5666667,10.0333333 12,10.0333333 C11.4333333,10.0333333 11,9.6 11,9.03333333 C11,8.46666667 11.4333333,8.03333333 12,8.03333333 L12,8.03333333 Z M13.6666667,15.0333333 C13.6666667,15.2 13.5333333,15.3333333 13.3333333,15.3333333 L10.6666667,15.3333333 C10.5,15.3333333 10.3333333,15.2333333 10.3333333,15.0333333 L10.3333333,14.3666667 C10.3333333,14.2 10.4666667,14 10.6666667,14 C10.8333333,14 11,13.9 11,13.7 L11,12.3666667 C11,12.2 10.8666667,12 10.6666667,12 C10.5,12 10.3333333,11.9 10.3333333,11.7 L10.3333333,11.0333333 C10.3333333,10.8666667 10.4666667,10.6666667 10.6666667,10.6666667 L12.6666667,10.6666667 C12.8333333,10.6666667 13,10.8333333 13,11.0333333 L13,13.7 C13,13.8666667 13.1333333,14 13.3333333,14 C13.5,14 13.6666667,14.1666667 13.6666667,14.3666667 L13.6666667,15.0333333 Z" id="a"/></defs><g fill="none" fill-rule="evenodd"><mask id="b" fill="#fff"><use xlink:href="#a"/></mask><use fill="#A3AFB7" xlink:href="#a"/><g mask="url(#b)" fill="#738692"><rect width="24" height="24"/></g></g></svg>