<svg width="40" height="40" viewBox="0 0 40 40" xmlns="http://www.w3.org/2000/svg" xmlns:xlink="http://www.w3.org/1999/xlink"><defs><path d="M17.705,15 L19.3238372,16.7439247 C19.6972716,17.1462144 20.3000312,17.1491201 20.6761628,16.7439247 L22.295,15 L22.325293,15.032705 C22.6979234,15.435005 22.7013807,16.0835296 22.3192536,16.4960825 L20.6807464,18.2650511 C20.3047806,18.6709522 19.7013807,18.677604 19.3192536,18.2650511 L17.6807464,16.4960825 C17.3047806,16.0901814 17.3030749,15.4339272 17.674707,15.032705 L17.705,15 Z" id="a"/><path d="M17.705,21 L19.3238372,22.7439247 C19.6972716,23.1462144 20.3000312,23.1491201 20.6761628,22.7439247 L22.295,21 L22.325293,21.032705 C22.6979234,21.435005 22.7013807,22.0835296 22.3192536,22.4960825 L20.6807464,24.2650511 C20.3047806,24.6709522 19.7013807,24.677604 19.3192536,24.2650511 L17.6807464,22.4960825 C17.3047806,22.0901814 17.3030749,21.4339272 17.674707,21.032705 L17.705,21 Z" id="b"/></defs><g fill="none" fill-rule="evenodd"><polygon points="0 0 40 0 40 40 0 40"/><use fill="#005082" transform="rotate(180 20 17)" xlink:href="#a"/><use fill="#005082" transform="matrix(-1 0 0 1 40 0)" xlink:href="#b"/></g></svg>