<svg xmlns="http://www.w3.org/2000/svg" width="24" height="24" viewBox="0 0 24 24"><g fill="none" fill-rule="evenodd"><polygon points="0 0 24 0 24 24 0 24" transform="rotate(90 12 12)"/><path fill="#005082" fill-rule="nonzero" d="M7.5,10.5 C6.675,10.5 6,11.175 6,12 C6,12.825 6.675,13.5 7.5,13.5 C8.325,13.5 9,12.825 9,12 C9,11.175 8.325,10.5 7.5,10.5 Z M16.5,10.5 C15.675,10.5 15,11.175 15,12 C15,12.825 15.675,13.5 16.5,13.5 C17.325,13.5 18,12.825 18,12 C18,11.175 17.325,10.5 16.5,10.5 Z M12,10.5 C11.175,10.5 10.5,11.175 10.5,12 C10.5,12.825 11.175,13.5 12,13.5 C12.825,13.5 13.5,12.825 13.5,12 C13.5,11.175 12.825,10.5 12,10.5 Z" transform="rotate(90 12 12)"/></g></svg>