<svg xmlns="http://www.w3.org/2000/svg" xmlns:xlink="http://www.w3.org/1999/xlink" width="16" height="16" viewBox="0 0 16 16"><defs><path id="a" d="M5.6668942,-0.0623435722 C5.4894198,-0.239817975 5.20273038,-0.239817975 5.02525597,-0.0623435722 L2.8,2.15836177 L0.574744027,-0.066894198 C0.397269625,-0.244368601 0.110580205,-0.244368601 -0.066894198,-0.066894198 C-0.244368601,0.110580205 -0.244368601,0.397269625 -0.066894198,0.574744027 L2.15836177,2.8 L-0.066894198,5.02525597 C-0.244368601,5.20273038 -0.244368601,5.4894198 -0.066894198,5.6668942 C0.110580205,5.8443686 0.397269625,5.8443686 0.574744027,5.6668942 L2.8,3.44163823 L5.02525597,5.6668942 C5.20273038,5.8443686 5.4894198,5.8443686 5.6668942,5.6668942 C5.8443686,5.4894198 5.8443686,5.20273038 5.6668942,5.02525597 L3.44163823,2.8 L5.6668942,0.574744027 C5.83981797,0.40182025 5.83981797,0.110580205 5.6668942,-0.0623435722 Z"/></defs><g fill="none" fill-rule="evenodd"><circle cx="8" cy="8" r="7" fill="#CBCBCB"/><use xlink:href="#a" fill="#FFF" fill-rule="nonzero" transform="translate(5.2 5.2)"/></g></svg>