<svg xmlns="http://www.w3.org/2000/svg" width="48" height="48" viewBox="0 0 48 48"><g fill="none" fill-rule="evenodd"><circle cx="24" cy="24" r="18" fill="#E5E5E5"/><g transform="translate(12 12)"><rect width="24" height="24"/><path fill="#B1B1B1" fill-rule="nonzero" d="M7.4,10 L8.99,10 L8.99,15 C8.99,15.55 9.44,16 9.99,16 L13.99,16 C14.54,16 14.99,15.55 14.99,15 L14.99,10 L16.58,10 C17.47,10 17.92,8.92 17.29,8.29 L12.7,3.7 C12.31,3.31 11.68,3.31 11.29,3.7 L6.7,8.29 C6.07,8.92 6.51,10 7.4,10 Z M5,19 C5,19.55 5.45,20 6,20 L18,20 C18.55,20 19,19.55 19,19 C19,18.45 18.55,18 18,18 L6,18 C5.45,18 5,18.45 5,19 Z"/></g></g></svg>