<?xml version="1.0" encoding="UTF-8"?>
<svg width="20px" height="20px" viewBox="0 0 20 20" version="1.1" xmlns="http://www.w3.org/2000/svg" xmlns:xlink="http://www.w3.org/1999/xlink">
    <!-- Generator: Sketch 61.2 (89653) - https://sketch.com -->
    <title>icon_reset</title>
    <desc>Created with Sketch.</desc>
    <g id="icon_reset" stroke="none" stroke-width="1" fill="none" fill-rule="evenodd">
        <g id="ic_settings_backup_restore-copy-2" transform="translate(0.000000, 1.000000)" fill="#005082">
            <g id="Icon-24px">
                <path d="M13.3333333,8.57142857 C13.3333333,7.52380952 12.4761905,6.66666667 11.4285714,6.66666667 C10.3809524,6.66666667 9.52380952,7.52380952 9.52380952,8.57142857 C9.52380952,9.61904762 10.3809524,10.4761905 11.4285714,10.4761905 C12.4761905,10.4761905 13.3333333,9.61904762 13.3333333,8.57142857 L13.3333333,8.57142857 Z M11.4285714,0 C6.6952381,0 2.85714286,3.83809524 2.85714286,8.57142857 L0,8.57142857 L3.80952381,12.3809524 L7.61904762,8.57142857 L4.76190476,8.57142857 C4.76190476,4.88571429 7.74285714,1.9047619 11.4285714,1.9047619 C15.1142857,1.9047619 18.0952381,4.88571429 18.0952381,8.57142857 C18.0952381,12.2571429 15.1142857,15.2380952 11.4285714,15.2380952 C9.99047619,15.2380952 8.65714286,14.7714286 7.56190476,14 L6.20952381,15.3714286 C7.65714286,16.4761905 9.46666667,17.1428571 11.4285714,17.1428571 C16.1619048,17.1428571 20,13.3047619 20,8.57142857 C20,3.83809524 16.1619048,0 11.4285714,0 L11.4285714,0 Z" id="Shape"></path>
            </g>
        </g>
    </g>
</svg>