<svg xmlns="http://www.w3.org/2000/svg" width="24" height="24" viewBox="0 0 24 24"><path fill="#009527" d="M21.2877797,5.88629655 L11.2877797,15.8862966 C10.8977797,16.2762966 10.2677797,16.2762966 9.87777973,15.8862966 L7.04777973,13.0562966 C6.65777973,12.6662966 6.65777973,12.0362966 7.04777973,11.6462966 L7.04777973,11.6462966 C7.43777973,11.2562966 8.06777973,11.2562966 8.45777973,11.6462966 L10.5777797,13.7662966 L19.8677797,4.47629655 C20.2577797,4.08629655 20.8877797,4.08629655 21.2777797,4.47629655 L21.2777797,4.47629655 C21.6777797,4.86629655 21.6777797,5.49629655 21.2877797,5.88629655 Z M15.7677797,2.73629655 C14.0777797,2.04629655 12.1577797,1.80629655 10.1577797,2.16629655 C6.08777973,2.89629655 2.83777973,6.17629655 2.14777973,10.2462966 C1.00777973,16.9962966 6.62777973,22.7762966 13.3377797,21.9062966 C17.2977797,21.3962966 20.6177797,18.4462966 21.6577797,14.5962966 C22.0577797,13.1262966 22.0977797,11.7062966 21.8677797,10.3762966 C21.7377797,9.57629655 20.7477797,9.26629655 20.1677797,9.83629655 L20.1677797,9.83629655 C19.9377797,10.0662966 19.8377797,10.4062966 19.8977797,10.7262966 C20.1177797,12.0562966 20.0177797,13.4762966 19.3777797,14.9862966 C18.2177797,17.6962966 15.6977797,19.6862966 12.7677797,19.9562966 C7.66777973,20.4262966 3.43777973,16.1062966 4.06777973,10.9762966 C4.49777973,7.43629655 7.34777973,4.55629655 10.8777797,4.06629655 C12.6077797,3.82629655 14.2477797,4.15629655 15.6477797,4.87629655 C16.0377797,5.07629655 16.5077797,5.00629655 16.8177797,4.69629655 L16.8177797,4.69629655 C17.2977797,4.21629655 17.1777797,3.40629655 16.5777797,3.09629655 C16.3077797,2.97629655 16.0377797,2.84629655 15.7677797,2.73629655 Z"/></svg>