<?xml version="1.0" encoding="UTF-8"?>
<svg width="20px" height="20px" viewBox="0 0 20 20" version="1.1" xmlns="http://www.w3.org/2000/svg" xmlns:xlink="http://www.w3.org/1999/xlink">
    <!-- Generator: Sketch 61.2 (89653) - https://sketch.com -->
    <title>icon_progress</title>
    <desc>Created with Sketch.</desc>
    <g id="icon_progress" stroke="none" stroke-width="1" fill="none" fill-rule="evenodd">
        <g id="Group" transform="translate(1.000000, 1.000000)" fill="#5697B7">
            <path d="M5.25,9.5625 L5.25,8.4375 C5.25,8.1375 4.9875,7.875 4.6875,7.875 L0.5625,7.875 C0.2625,7.875 1.77635684e-15,8.1375 1.77635684e-15,8.4375 L1.77635684e-15,9.5625 C1.77635684e-15,9.8625 0.2625,10.125 0.5625,10.125 L4.6875,10.125 C4.9875,10.125 5.25,9.8625 5.25,9.5625 Z" id="Path"></path>
            <path d="M5.9625,11.25 C5.7375,11.025 5.4,11.025 5.175,11.25 L2.25,14.175 C2.025,14.4 2.025,14.7375 2.25,14.9625 L3.0375,15.75 C3.2625,15.975 3.6,15.975 3.825,15.75 L6.75,12.825 C6.975,12.6 6.975,12.2625 6.75,12.0375 L5.9625,11.25 Z" id="Path"></path>
            <path d="M12.0375,6.75 C12.2625,6.975 12.6,6.975 12.825,6.75 L15.75,3.825 C15.975,3.6 15.975,3.2625 15.75,3.0375 L14.9625,2.25 C14.7375,2.025 14.4,2.025 14.175,2.25 L11.25,5.1375 C11.025,5.3625 11.025,5.7 11.25,5.925 L12.0375,6.75 L12.0375,6.75 Z" id="Path"></path>
            <path d="M3.825,2.25 C3.6,2.025 3.2625,2.025 3.0375,2.25 L2.25,3.0375 C2.025,3.2625 2.025,3.6 2.25,3.825 L5.175,6.75 C5.4,6.975 5.7375,6.975 5.9625,6.75 L6.75,5.9625 C6.975,5.7375 6.975,5.4 6.75,5.175 L3.825,2.25 L3.825,2.25 Z" id="Path"></path>
            <path d="M12.8625,11.25 C12.6375,11.025 12.3,11.025 12.075,11.25 L11.25,12.0375 C11.025,12.2625 11.025,12.6 11.25,12.825 L14.175,15.75 C14.4,15.975 14.7375,15.975 14.9625,15.75 L15.75,14.9625 C15.975,14.7375 15.975,14.4 15.75,14.175 L12.8625,11.25 L12.8625,11.25 Z" id="Path"></path>
            <path d="M9.5625,12.75 L8.4375,12.75 C8.1375,12.75 7.875,13.0125 7.875,13.3125 L7.875,17.4375 C7.875,17.7375 8.1375,18 8.4375,18 L9.5625,18 C9.8625,18 10.125,17.7375 10.125,17.4375 L10.125,13.3125 C10.125,13.0125 9.8625,12.75 9.5625,12.75 Z" id="Path"></path>
            <path d="M17.4375,7.875 L13.3125,7.875 C13.0125,7.875 12.75,8.1375 12.75,8.4375 L12.75,9.5625 C12.75,9.8625 13.0125,10.125 13.3125,10.125 L17.4375,10.125 C17.7375,10.125 18,9.8625 18,9.5625 L18,8.4375 C18,8.1375 17.7375,7.875 17.4375,7.875 Z" id="Path"></path>
            <path d="M9.5625,-4.4408921e-16 L8.4375,-4.4408921e-16 C8.1375,-4.4408921e-16 7.875,0.2625 7.875,0.5625 L7.875,4.6875 C7.875,4.9875 8.1375,5.25 8.4375,5.25 L9.5625,5.25 C9.8625,5.25 10.125,4.9875 10.125,4.6875 L10.125,0.5625 C10.125,0.2625 9.8625,-4.4408921e-16 9.5625,-4.4408921e-16 Z" id="Path"></path>
        </g>
    </g>
</svg>