<svg xmlns="http://www.w3.org/2000/svg" width="275" height="28" viewBox="0 0 275 28"><g fill="none" transform="translate(.215 .5)"><path fill="#939598" d="M45.0149498 22.0197348 42.8777305 26.1136255C42.6464479 26.5983039 42.1625408 26.9061462 41.6319421 26.9061462 41.1013434 26.9061462 40.6174363 26.5983039 40.3861537 26.1136255L33.2657807 12.7192691 36.1449362 12.7192691 41.7094578 23.4611664 43.7913087 19.6538761 40.2145117 12.7192691 43.1102777 12.7192691 48.4560942 23.4611664 54.0593737 12.7192691 56.7475083 12.7192691 49.6299038 26.1136255C49.3911258 26.5893268 48.9073276 26.8865586 48.3813469 26.8807032 47.8585706 26.8902768 47.3778652 26.5909631 47.1494006 26.1136255L45.0149498 22.0197348ZM68.5286112 26.8977016 66.471799 23.376316 59.9870508 23.376316 61.1174703 21.4059165 65.3138083 21.4059165 62.2809753 16.1646535 56.0581536 26.9061462 53.3230897 26.9061462 61.2029411 13.5102438C61.4786532 13.0289033 61.8453502 12.7192691 62.3747174 12.7192691 62.9040846 12.7192691 63.2404534 13.0289033 63.5244368 13.5102438L71.423588 26.9061462 68.5286112 26.8977016ZM67.5099668 12.7192691 70.4343811 12.7192691 76.6525514 23.4994938 82.854184 12.7192691 85.6104651 12.7192691 77.708207 26.1150145C77.4325789 26.5964505 77.0494559 26.9061462 76.5588378 26.9061462 76.0682198 26.9061462 75.6740716 26.5964505 75.3901746 26.1150145L67.5099668 12.7192691Z"/><polygon fill="#939598" points="87.078 26.417 87.078 12.719 99.289 12.719 99.289 15.111 89.447 15.111 89.447 24.025 99.308 24.025 99.308 26.417"/><polygon fill="#939598" points="91.205 20.462 91.205 18.448 98.783 18.448 98.783 20.462"/><path fill="#939598" d="M101.470767 26.4169435 101.470767 24.0275582 111.698468 24.0275582C112.97453 24.0275582 113.688027 23.3118437 113.688027 22.2382719 113.688027 21.0711068 112.97453 20.4682549 111.698468 20.4682549L105.430674 20.4682549C102.859341 20.4682549 101.26495 18.8331226 101.26495 16.5731164 101.26495 14.3709179 102.746828 12.7192691 105.469093 12.7192691L115.263208 12.7192691 115.263208 15.1086544 105.469093 15.1086544C104.371405 15.1086544 103.740235 15.7500447 103.740235 16.785078 103.740235 17.8201113 104.398848 18.4367269 105.447139 18.4367269L111.698468 18.4367269C114.456408 18.4367269 115.94103 19.7332712 115.94103 22.3896731 115.94103 24.685465 114.552455 26.3976743 111.698468 26.3976743L101.470767 26.4169435ZM124.594579 26.4169435C120.744093 26.4169435 117.897841 23.4024081 117.897841 19.4261972 117.897841 15.394876 120.744093 12.7192691 124.594579 12.7192691L132.084718 12.7192691 132.084718 15.1110578 124.594579 15.1110578C122.131156 15.1110578 120.308555 16.940721 120.308555 19.5391734 120.308555 22.1376258 122.097866 24.0251549 124.594579 24.0251549L132.084718 24.0251549 132.084718 26.4169435 124.594579 26.4169435ZM148.277355 26.8977016 146.223613 23.376316 139.739853 23.376316 140.867343 21.4059165 145.074069 21.4059165 142.019644 16.1646535 135.79777 26.9061462 133.063123 26.9061462 140.944531 13.5102438C141.220201 13.0289033 141.584086 12.7192691 142.113372 12.7192691 142.642659 12.7192691 142.981733 13.0289033 143.262916 13.5102438L151.163621 26.9061462 148.277355 26.8977016ZM157.255589 22.6175483 157.255589 20.2987592 162.780182 20.2987592C164.46242 20.2987592 165.462371 19.242759 165.462371 17.6959805 165.462371 16.1492021 164.46242 15.1125021 162.780182 15.1125021L155.498769 15.1125021 155.498769 26.4169435 153.120432 26.4169435 153.120432 12.7192691 162.771895 12.7192691C165.945773 12.7192691 167.796512 14.6217239 167.796512 17.6215366 167.796512 20.6213494 165.945773 22.6175483 162.771895 22.6175483L157.255589 22.6175483Z"/><polygon fill="#939598" points="169.264 26.417 169.264 12.719 181.472 12.719 181.472 15.111 171.64 15.111 171.64 24.025 181.494 24.025 181.494 26.417"/><polygon fill="#939598" points="173.388 20.462 173.388 18.448 180.966 18.448 180.966 20.462"/><polygon fill="#939598" points="183.103 14.676 183.103 13.058 182.473 13.058 182.473 12.719 184.127 12.719 184.127 13.058 183.505 13.058 183.505 14.676"/><polygon fill="#939598" points="185.992 14.676 185.992 13.582 185.571 14.676 185.259 14.676 184.822 13.582 184.822 14.676 184.428 14.676 184.428 12.719 184.803 12.719 185.406 14.112 186.02 12.719 186.386 12.719 186.386 14.676"/><path fill="#FF6C0E" d="M10.4233521,24.1762911 C16.3382569,20.6570104 21.5860673,15.3280521 25.2940011,8.51465789 C26.077727,7.07287748 26.7792964,5.58792389 27.3953488,4.06690973 L27.3953488,0 L23.984828,0 C23.7374987,2.49304485 22.9947223,4.9115661 21.8000934,7.11361722 C18.5063142,13.1625547 12.2384051,16.759671 5.07269801,17.5046689 C10.4195045,14.6145112 14.8055711,10.225101 17.6919029,4.87584392 C18.5408989,3.31314613 19.2577436,1.68218214 19.8349441,0 L15.2987013,0 C15.0465004,1.03000985 14.6625339,2.0231918 14.1563019,2.95497269 C11.8576053,7.1775536 7.38251284,9.62659493 2.22086888,10.0713697 C6.01580463,8.12572634 9.13307436,5.0769462 11.1627152,1.32598492 C11.4017574,0.88676979 11.6222692,0.444774816 11.8242506,0 L0,0 L0,27.3953488 L27.3953488,27.3953488 L27.3953488,14.6330915 C23.2093306,19.8675351 17.1193135,23.1644284 10.4233521,24.1762911 Z"/><path fill="#F36E21" d="M.444093023 14.332093C.30951938 14.332093.201860465 14.2883566.121116279 14.2008837.040372093 14.1134109 0 14.0023876 0 13.867814L0 .666139535C0 .531565891.040372093.420542636.121116279.333069767.201860465.245596899.30951938.201860465.444093023.201860465L1.45339535.201860465C1.60142636.201860465 1.71581395.242232558 1.79655814.322976744 1.87730233.40372093 1.91767442.518108527 1.91767442.666139535L1.91767442 13.867814C1.91767442 14.0023876 1.87393798 14.1134109 1.78646512 14.2008837 1.69899225 14.2883566 1.58796899 14.332093 1.45339535 14.332093L.444093023 14.332093ZM10.5774884 14.5339535C8.82803101 14.5339535 7.46883721 14.0494884 6.49990698 13.0805581 5.53097674 12.1116279 5.01286822 10.7995349 4.9455814 9.14427907 4.93212403 8.74055814 4.92539535 8.10806202 4.92539535 7.2467907 4.92539535 6.37206202 4.93212403 5.73956589 4.9455814 5.34930233 4.99941085 3.70750388 5.51415504 2.40550388 6.48981395 1.44330233 7.46547287.481100775 8.82803101-2.5612587e-15 10.5774884-2.5612587e-15 11.7617364-2.5612587e-15 12.7643101.215317829 13.5852093.645953488 14.4061085 1.07658915 15.0251473 1.59133333 15.4423256 2.19018605 15.8595039 2.78903876 16.0815504 3.34415504 16.1084651 3.85553488L16.1084651 3.89590698C16.1084651 4.00356589 16.0647287 4.0944031 15.9772558 4.1684186 15.8897829 4.24243411 15.7922171 4.27944186 15.6845581 4.27944186L14.5541395 4.27944186C14.4330233 4.27944186 14.342186 4.25252713 14.2816279 4.19869767 14.2210698 4.14486822 14.163876 4.04393798 14.1100465 3.89590698 13.8947287 3.26341085 13.4977364 2.73184496 12.9190698 2.3012093 12.3404031 1.87057364 11.559876 1.65525581 10.5774884 1.65525581 9.44706977 1.65525581 8.55888372 1.96477519 7.91293023 2.58381395 7.26697674 3.20285271 6.92381395 4.15832558 6.88344186 5.45023256 6.8699845 5.84049612 6.86325581 6.43934884 6.86325581 7.2467907 6.86325581 8.04077519 6.8699845 8.63962791 6.88344186 9.04334884 6.92381395 10.3487132 7.26697674 11.3109147 7.91293023 11.9299535 8.55888372 12.5489922 9.44706977 12.8585116 10.5774884 12.8585116 11.7213643 12.8585116 12.6364651 12.5456279 13.3227907 11.9198605 14.0091163 11.294093 14.3522791 10.3554419 14.3522791 9.10390698L14.3522791 8.23590698 11.263814 8.23590698C11.1292403 8.23590698 11.0182171 8.1888062 10.9307442 8.09460465 10.8432713 8.0004031 10.7995349 7.8860155 10.7995349 7.75144186L10.7995349 7.14586047C10.7995349 7.01128682 10.8432713 6.89689922 10.9307442 6.80269767 11.0182171 6.70849612 11.1292403 6.66139535 11.263814 6.66139535L15.7854884 6.66139535C15.9335194 6.66139535 16.0512713 6.70513178 16.1387442 6.79260465 16.2262171 6.88007752 16.2699535 6.99782946 16.2699535 7.14586047L16.2699535 9.06353488C16.2699535 10.1535814 16.0445426 11.1124186 15.5937209 11.9400465 15.1428992 12.7676744 14.4868527 13.4068992 13.6255814 13.8577209 12.7643101 14.3085426 11.7482791 14.5339535 10.5774884 14.5339535ZM19.6208372 14.332093C19.4862636 14.332093 19.3786047 14.2883566 19.2978605 14.2008837 19.2171163 14.1134109 19.1767442 14.0023876 19.1767442 13.867814L19.1767442.686325581C19.1767442.538294574 19.2171163.420542636 19.2978605.333069767 19.3786047.245596899 19.4862636.201860465 19.6208372.201860465L20.5090233.201860465C20.6435969.201860465 20.7445271.228775194 20.811814.282604651 20.8791008.336434109 20.9463876.40372093 21.0136744.484465116L27.776 10.9004651 27.776.686325581C27.776.538294574 27.8197364.420542636 27.9072093.333069767 27.9946822.245596899 28.1057054.201860465 28.2402791.201860465L29.1486512.201860465C29.2966822.201860465 29.4144341.245596899 29.501907.333069767 29.5893798.420542636 29.6331163.538294574 29.6331163.686325581L29.6331163 13.8476279C29.6331163 13.9822016 29.5893798 14.0965891 29.501907 14.1907907 29.4144341 14.2849922 29.3034109 14.332093 29.1688372 14.332093L28.2604651 14.332093C28.0316899 14.332093 27.8702016 14.2378915 27.776 14.0494884L21.0136744 3.7344186 21.0136744 13.867814C21.0136744 14.0023876 20.969938 14.1134109 20.8824651 14.2008837 20.7949922 14.2883566 20.683969 14.332093 20.5493953 14.332093L19.6208372 14.332093ZM33.6097674 14.332093C33.4751938 14.332093 33.3675349 14.2883566 33.2867907 14.2008837 33.2060465 14.1134109 33.1656744 14.0023876 33.1656744 13.867814L33.1656744.666139535C33.1656744.531565891 33.2060465.420542636 33.2867907.333069767 33.3675349.245596899 33.4751938.201860465 33.6097674.201860465L34.6190698.201860465C34.7671008.201860465 34.8814884.242232558 34.9622326.322976744 35.0429767.40372093 35.0833488.518108527 35.0833488.666139535L35.0833488 13.867814C35.0833488 14.0023876 35.0396124 14.1134109 34.9521395 14.2008837 34.8646667 14.2883566 34.7536434 14.332093 34.6190698 14.332093L33.6097674 14.332093ZM42.1888372 14.332093C42.0542636 14.332093 41.9432403 14.2883566 41.8557674 14.2008837 41.7682946 14.1134109 41.7245581 14.0023876 41.7245581 13.867814L41.7245581 1.93786047 37.8286512 1.93786047C37.6940775 1.93786047 37.5830543 1.89412403 37.4955814 1.80665116 37.4081085 1.71917829 37.3643721 1.60815504 37.3643721 1.4735814L37.3643721.686325581C37.3643721.538294574 37.4081085.420542636 37.4955814.333069767 37.5830543.245596899 37.6940775.201860465 37.8286512.201860465L47.5179535.201860465C47.6659845.201860465 47.7803721.245596899 47.8611163.333069767 47.9418605.420542636 47.9822326.538294574 47.9822326.686325581L47.9822326 1.4735814C47.9822326 1.60815504 47.9384961 1.71917829 47.8510233 1.80665116 47.7635504 1.89412403 47.6525271 1.93786047 47.5179535 1.93786047L43.6422326 1.93786047 43.6422326 13.867814C43.6422326 14.0023876 43.5951318 14.1134109 43.5009302 14.2008837 43.4067287 14.2883566 43.2923411 14.332093 43.1577674 14.332093L42.1888372 14.332093ZM50.7275349 14.332093C50.5929612 14.332093 50.4853023 14.2883566 50.4045581 14.2008837 50.323814 14.1134109 50.2834419 14.0023876 50.2834419 13.867814L50.2834419.666139535C50.2834419.531565891 50.323814.420542636 50.4045581.333069767 50.4853023.245596899 50.5929612.201860465 50.7275349.201860465L51.7368372.201860465C51.8848682.201860465 51.9992558.242232558 52.08.322976744 52.1607442.40372093 52.2011163.518108527 52.2011163.666139535L52.2011163 13.867814C52.2011163 14.0023876 52.1573798 14.1134109 52.069907 14.2008837 51.9824341 14.2883566 51.8714109 14.332093 51.7368372 14.332093L50.7275349 14.332093ZM60.8003721 14.5339535C59.0509147 14.5339535 57.6984496 14.0730388 56.7429767 13.1512093 55.7875039 12.2293798 55.2828527 10.839907 55.2290233 8.9827907 55.2155659 8.57906977 55.2088372 8.00713178 55.2088372 7.26697674 55.2088372 6.52682171 55.2155659 5.9616124 55.2290233 5.57134884 55.2828527 3.74114729 55.8043256 2.35503876 56.7934419 1.41302326 57.7825581.471007752 59.1182016-2.5612587e-15 60.8003721-2.5612587e-15 62.4825426-2.5612587e-15 63.8148217.471007752 64.7972093 1.41302326 65.7795969 2.35503876 66.2977054 3.74114729 66.3515349 5.57134884 66.3784496 6.35187597 66.391907 6.91708527 66.391907 7.26697674 66.391907 7.60341085 66.3784496 8.17534884 66.3515349 8.9827907 66.2977054 10.839907 65.7964186 12.2293798 64.8476744 13.1512093 63.8989302 14.0730388 62.5498295 14.5339535 60.8003721 14.5339535ZM60.8003721 12.8585116C61.8769612 12.8585116 62.7382326 12.5321705 63.384186 11.8794884 64.0301395 11.2268062 64.380031 10.2275969 64.4338605 8.88186047 64.4607752 8.0744186 64.4742326 7.53612403 64.4742326 7.26697674 64.4742326 6.97091473 64.4607752 6.43262016 64.4338605 5.65209302 64.380031 4.30635659 64.0301395 3.30378295 63.384186 2.64437209 62.7382326 1.98496124 61.8769612 1.65525581 60.8003721 1.65525581 59.7237829 1.65525581 58.8591473 1.98496124 58.2064651 2.64437209 57.5537829 3.30378295 57.2072558 4.30635659 57.1668837 5.65209302 57.1534264 6.04235659 57.1466977 6.58065116 57.1466977 7.26697674 57.1466977 7.93984496 57.1534264 8.47813953 57.1668837 8.88186047 57.2072558 10.2275969 57.5504186 11.2268062 58.1963721 11.8794884 58.8423256 12.5321705 59.7103256 12.8585116 60.8003721 12.8585116ZM69.8235349 14.332093C69.6889612 14.332093 69.5813023 14.2883566 69.5005581 14.2008837 69.419814 14.1134109 69.3794419 14.0023876 69.3794419 13.867814L69.3794419.686325581C69.3794419.538294574 69.419814.420542636 69.5005581.333069767 69.5813023.245596899 69.6889612.201860465 69.8235349.201860465L70.7117209.201860465C70.8462946.201860465 70.9472248.228775194 71.0145116.282604651 71.0817984.336434109 71.1490853.40372093 71.2163721.484465116L77.9786977 10.9004651 77.9786977.686325581C77.9786977.538294574 78.0224341.420542636 78.109907.333069767 78.1973798.245596899 78.3084031.201860465 78.4429767.201860465L79.3513488.201860465C79.4993798.201860465 79.6171318.245596899 79.7046047.333069767 79.7920775.420542636 79.835814.538294574 79.835814.686325581L79.835814 13.8476279C79.835814 13.9822016 79.7920775 14.0965891 79.7046047 14.1907907 79.6171318 14.2849922 79.5061085 14.332093 79.3715349 14.332093L78.4631628 14.332093C78.2343876 14.332093 78.0728992 14.2378915 77.9786977 14.0494884L71.2163721 3.7344186 71.2163721 13.867814C71.2163721 14.0023876 71.1726357 14.1134109 71.0851628 14.2008837 70.9976899 14.2883566 70.8866667 14.332093 70.752093 14.332093L69.8235349 14.332093Z" transform="translate(194.097 12.342)"/></g></svg>